<svg id="レイヤー_1" data-name="レイヤー 1" xmlns="http://www.w3.org/2000/svg" viewBox="0 0 84.97 84.97"><defs><style>.cls-1{fill:#fff;}</style></defs><path class="cls-1" d="M338.16,415.22v-.15l-12.34-2.51v.28a29.22,29.22,0,0,0-2.49-6l.21.2,6.95-10.49-.11-.11c.86-.85-.25-3.35-2.48-5.57s-4.72-3.34-5.58-2.49l-.1-.1-10.5,6.95.21.2a29.11,29.11,0,0,0-6.74-2.69h1l-2.5-12.34h-.15c0-1.2-2.55-2.18-5.7-2.18s-5.7,1-5.7,2.18H292l-2.51,12.34h1a29.11,29.11,0,0,0-6.74,2.69l.2-.2-10.49-6.95-.11.1c-.85-.85-3.35.26-5.57,2.49s-3.34,4.72-2.49,5.57l-.1.11,6.95,10.49.2-.2a29.22,29.22,0,0,0-2.49,6v-.28l-12.33,2.51v.15c-1.21,0-2.19,2.55-2.19,5.7s1,5.7,2.19,5.7v.15l12.33,2.5V429a29.07,29.07,0,0,0,2.49,6l-.2-.21-6.95,10.5.1.11c-.85.85.26,3.35,2.49,5.57s4.72,3.34,5.57,2.49l.11.1L284,446.6l-.2-.2a29.13,29.13,0,0,0,5.74,2.41L292,461h.15c0,1.21,2.55,2.19,5.7,2.19s5.7-1,5.7-2.19h.15l2.48-12.2a29.64,29.64,0,0,0,5.74-2.41l-.21.2,10.5,6.95.1-.1c.86.85,3.35-.26,5.58-2.49s3.34-4.72,2.48-5.57l.11-.11-6.95-10.5-.21.21a29.07,29.07,0,0,0,2.49-6v.28l12.34-2.5v-.15c1.2,0,2.18-2.55,2.18-5.7S339.36,415.22,338.16,415.22Z" transform="translate(-255.37 -378.23)"/></svg>