<svg id="レイヤー_1" data-name="レイヤー 1" xmlns="http://www.w3.org/2000/svg" viewBox="0 0 33 26.5"><defs><style>.cls-1{fill:#d68c67;}</style></defs><rect class="cls-1" x="4.04" y="22.64" width="25.31" height="3.86"/><path class="cls-1" d="M878.07,415.42a2.49,2.49,0,0,0-1.73,4.29l-5.74,4.71L866,417.5a2.5,2.5,0,1,0-3.89-2.08,2.48,2.48,0,0,0,1,2l-5.16,7-6-4.89a2.49,2.49,0,1,0-1.9.89,2.39,2.39,0,0,0,.66-.1l.88,14.1h25.31l.88-14,.27,0a2.5,2.5,0,0,0,0-5Zm-13.8,16a2.5,2.5,0,1,1,2.5-2.5A2.5,2.5,0,0,1,864.27,431.42Z" transform="translate(-847.57 -412.92)"/></svg>