<svg id="レイヤー_1" data-name="レイヤー 1" xmlns="http://www.w3.org/2000/svg" viewBox="0 0 26.2 26.19"><defs><style>.cls-1{fill:#0a122d;}</style></defs><path class="cls-1" d="M233.61,305.74v-.05l-3.8-.77V305a9.14,9.14,0,0,0-.77-1.85l.06.06,2.15-3.23,0,0c.27-.26-.08-1-.76-1.71s-1.46-1-1.72-.77l0,0-3.24,2.14.06.06a9.05,9.05,0,0,0-2.07-.83h.31L223,295h0c0-.37-.79-.67-1.76-.67s-1.76.3-1.76.67h0l-.77,3.8h.31a9,9,0,0,0-2.08.83l.06-.06-3.23-2.14,0,0c-.26-.26-1,.08-1.71.77s-1,1.45-.77,1.71l0,0,2.14,3.23.06-.06a9.14,9.14,0,0,0-.77,1.85v-.09l-3.8.77v.05c-.37,0-.67.79-.67,1.76s.31,1.75.67,1.75v.05l3.8.77V310a9.64,9.64,0,0,0,.77,1.85l-.06-.07L211.12,315l0,0c-.26.26.08,1,.77,1.72s1.45,1,1.71.77l0,0,3.25-2.15-.07-.06a9.09,9.09,0,0,0,1.77.74l.76,3.76h.05c0,.37.78.68,1.75.68s1.76-.31,1.76-.68H223l.76-3.76a8.6,8.6,0,0,0,1.77-.74l-.06.06,3.23,2.14,0,0c.27.26,1-.08,1.72-.77s1-1.45.77-1.71l0,0-2.14-3.23-.06.06a8.78,8.78,0,0,0,.76-1.85v.09l3.81-.77v-.05c.37,0,.67-.78.67-1.76S234,305.74,233.61,305.74Zm-15.48,1.69a2.51,2.51,0,1,1,2.51-2.51A2.51,2.51,0,0,1,218.13,307.43Z" transform="translate(-208.08 -294.34)"/></svg>