<svg id="レイヤー_1" data-name="レイヤー 1" xmlns="http://www.w3.org/2000/svg" viewBox="0 0 50.81 50.81"><defs><style>.cls-1{fill:#fff;}</style></defs><path class="cls-1" d="M282.06,411.7a25.4,25.4,0,1,0,25.41,25.4A25.4,25.4,0,0,0,282.06,411.7Zm-16.48,13.11h33.24a1.64,1.64,0,0,1,.91,3l-6.92,4.66a1.65,1.65,0,0,1-1.83,0l-6.51-4.38h-4.54l-6.51,4.38a1.65,1.65,0,0,1-1.83,0l-6.92-4.66A1.64,1.64,0,0,1,265.58,424.81Zm16.48,30.73a18.46,18.46,0,0,1-18.43-18.44h1.63a16.8,16.8,0,0,0,33.6,0h1.64A18.46,18.46,0,0,1,282.06,455.54Z" transform="translate(-256.66 -411.7)"/></svg>