<svg id="レイヤー_1" data-name="レイヤー 1" xmlns="http://www.w3.org/2000/svg" viewBox="0 0 43.57 43.57"><defs><style>.cls-1{fill:#fff;}</style></defs><path class="cls-1" d="M281.8,413.75a21.79,21.79,0,1,0,21.79,21.79A21.78,21.78,0,0,0,281.8,413.75Zm2.43,10.4,1-1,2.67,2.66,2.67-2.66,1,1-2.67,2.67,2.67,2.66-1,1-2.67-2.67-2.67,2.67-1-1,2.67-2.66Zm-12.77,0,1-1,2.66,2.66,2.67-2.66,1,1-2.66,2.67,2.66,2.66-1,1-2.67-2.67-2.66,2.67-1-1,2.67-2.66Zm22.29,19.12a3.08,3.08,0,0,1-2.56-1.71c-.5-.7-.82-1.11-1.42-1.11s-.91.41-1.41,1.11a2.78,2.78,0,0,1-5.13,0c-.5-.7-.81-1.11-1.42-1.11s-.91.41-1.41,1.11a2.79,2.79,0,0,1-5.14,0c-.5-.7-.81-1.11-1.42-1.11s-.92.41-1.42,1.11a3.12,3.12,0,0,1-2.57,1.71v-1.41c.61,0,.92-.4,1.43-1.11a3.08,3.08,0,0,1,2.56-1.7,3.11,3.11,0,0,1,2.57,1.7c.5.71.82,1.11,1.42,1.11s.92-.4,1.42-1.11a2.79,2.79,0,0,1,5.13,0c.5.71.81,1.11,1.41,1.11s.92-.4,1.42-1.11a2.79,2.79,0,0,1,5.13,0c.5.71.81,1.11,1.41,1.11Z" transform="translate(-260.02 -413.75)"/></svg>